<svg fill="#fefefe" xmlns="http://www.w3.org/2000/svg" viewBox="0 0 92 92">
  <path d="M61.9 52.5c-3.6 0-6.5 4-6.5 9 0 5 2.9 9 6.5 9 3.6 0 6.5-4 6.5-9C68.4 56.6 65.5 52.5 61.9 52.5zM84.5 29.1c0.7-1.8 0.8-12.2-3.2-22.1 0 0-9.1 1-22.8 10.4 -2.9-0.8-7.7-1.2-12.6-1.2s-9.7 0.4-12.6 1.2C19.7 8 10.6 7 10.6 7c-3.9 9.9-3.9 20.3-3.2 22.1C2.8 34.2 0 40.2 0 48.5c0 35.9 29.8 36.5 37.3 36.5 1.7 0 5.1 0 8.7 0 3.6 0 7 0 8.7 0C62.2 85 92 84.4 92 48.5 92 40.2 89.2 34.2 84.5 29.1zM46.1 80.6H45.9c-18.9 0-33.5-2.3-33.5-20.6 0-4.4 1.5-8.5 5.2-11.8 6.1-5.6 16.5-2.7 28.3-2.7 0 0 0.1 0 0.1 0 0 0 0.1 0 0.1 0 11.8 0 22.2-3 28.3 2.7 3.7 3.4 5.2 7.5 5.2 11.8C79.7 78.3 65 80.6 46.1 80.6zM30.1 52.5c-3.6 0-6.5 4-6.5 9 0 5 2.9 9 6.5 9 3.6 0 6.5-4 6.5-9C36.6 56.6 33.7 52.5 30.1 52.5z"
  />
</svg>
