<svg width="68" height="44" viewBox="0 0 68 44" xmlns="http://www.w3.org/2000/svg" class="a">
<style>
  .a{
    fill:none;
  }
  .b{
    stroke-width:2;
    stroke:#FEFEFE;
  }
  .c{
    fill:#FEFEFE;
  }
</style>
  <path d="M2 26.5V2" class="b"/>
  <path d="M66.5 42.5V18" class="b"/>
  <path d="M66.5 42.5H1.5" class="b"/>
  <path d="M2 1.5H65.93" class="b"/>
  <path d="M28.28 18.97H26.39L25.92 16.33C25.54 16.01 25.03 15.75 24.4 15.53 23.76 15.32 23.03 15.22 22.19 15.22 20.86 15.22 19.84 15.5 19.13 16.07 18.42 16.63 18.06 17.36 18.06 18.26 18.06 19.07 18.42 19.74 19.14 20.28 19.87 20.82 21.04 21.29 22.66 21.69 24.6 22.17 26.08 22.88 27.09 23.82 28.1 24.76 28.61 25.93 28.61 27.32 28.61 28.81 28 30 26.78 30.91 25.57 31.81 23.99 32.27 22.02 32.27 20.6 32.27 19.34 32.03 18.23 31.57 17.13 31.1 16.23 30.49 15.54 29.74V26.3H17.42L17.9 28.95C18.38 29.35 18.96 29.68 19.62 29.93 20.29 30.18 21.09 30.31 22.02 30.31 23.28 30.31 24.28 30.04 25.01 29.51 25.74 28.98 26.11 28.25 26.11 27.34 26.11 26.49 25.79 25.79 25.16 25.22 24.52 24.65 23.4 24.16 21.79 23.77 19.84 23.31 18.31 22.62 17.21 21.72 16.11 20.81 15.56 19.67 15.56 18.3 15.56 16.85 16.18 15.65 17.4 14.7 18.63 13.73 20.22 13.25 22.19 13.25 23.48 13.25 24.66 13.47 25.72 13.92 26.78 14.36 27.64 14.9 28.28 15.53V18.97ZM48.81 17.2L48.75 17.18 42.77 32H41.1L35.13 17.2 35.06 17.21 35.32 24.69V30.04L37.38 30.4V32H30.75V30.4L32.81 30.04V15.48L30.75 15.13V13.52H32.81 36.01L41.9 28.53H41.98L47.86 13.52H53.14V15.13L51.07 15.48V30.04L53.14 30.4V32H46.5V30.4L48.57 30.04V24.69L48.81 17.2Z" class="c"/>
</svg>
